<svg width="12" height="12" viewBox="0 0 12 12" fill="none" xmlns="http://www.w3.org/2000/svg">
<path d="M4.58 5.435C4.53 5.43 4.47 5.43 4.415 5.435C3.225 5.395 2.28 4.42 2.28 3.22C2.28 1.995 3.27 1 4.5 1C5.725 1 6.72 1.995 6.72 3.22C6.715 4.42 5.77 5.395 4.58 5.435Z" stroke="#292D32" stroke-linecap="round" stroke-linejoin="round"/>
<path d="M8.205 2C9.175 2 9.955 2.785 9.955 3.75C9.955 4.695 9.205 5.465 8.27 5.5C8.23 5.495 8.185 5.495 8.14 5.5" stroke="#292D32" stroke-linecap="round" stroke-linejoin="round"/>
<path d="M2.08 7.28C0.870001 8.09 0.870001 9.41 2.08 10.215C3.455 11.135 5.71 11.135 7.085 10.215C8.295 9.405 8.295 8.085 7.085 7.28C5.715 6.365 3.46 6.365 2.08 7.28Z" stroke="#292D32" stroke-linecap="round" stroke-linejoin="round"/>
<path d="M9.17 10C9.53 9.925 9.87 9.78 10.15 9.565C10.93 8.98 10.93 8.015 10.15 7.43C9.875 7.22 9.54 7.08 9.185 7" stroke="#292D32" stroke-linecap="round" stroke-linejoin="round"/>
</svg>
